# xmcd
#
# Track frame offsets: 
#        150
#        13593
#        28955
#        42869
#        54553
#        67154
#        80799
#        92599
#        105164
#        118412
#        132120
#        146289
#        157642
#        172667
#        187566
#        200427
#        213416
#        226349
#        239802
#        251495
#        263835
#        277451
#        289380
#        300636
#        312716
#
# Disc length: 4325 seconds
#
# Revision: 0
# Processed by: cddbd v1.5PL3 Copyright (c) Steve Scherf et al.
# Submitted via: ExactAudioCopy v0.95a5
#
DISCID=6a10e319
DTITLE=Various Artist - Tennessee Saturday Night
DYEAR=2000
DGENRE=Country
TTITLE0=Delmore Brothers/Pan-American Boogie
TTITLE1=Arthur Smith/Guitar Boogie
TTITLE2=Homer Callahan/Rattlesnake Daddy
TTITLE3=Claude Boone/Burglar Man
TTITLE4=Bill Nettles/Hadacol Boogie
TTITLE5=Texas Wanderers/Waitin' At The End Of The Road
TTITLE6=The Jubileers/The Right String But The Wrong Yo-Yo
TTITLE7=Gene Autry/Have I Told You Lately That I Love You
TTITLE8=Roy Newman/Match Box Blues
TTITLE9=Bill Monroe and His Bluegrass Boys/Six White Horses
TTITLE10=Maddox Brothers and Rose/Milk Cow Blues
TTITLE11=Roy Newman/Everybody's Trying To Be My Baby
TTITLE12=Shelton Brothers/I'm Sittin' On Top Of The World
TTITLE13=Cliff Carlisle/You'll Miss Me When I'm Gone (Just Because)
TTITLE14=Bob Wills and His Texas Playboys/Corrine, Corrina
TTITLE15=Johnny Lee Wills/Rag Mop
TTITLE16=Leon's Lonestar Cowboys/Deep Elm Blues
TTITLE17=Maddox Brothers and Rose/New Mule Skinner Blues
TTITLE18=Zeke Clements and His Western Swing Band/It's My Life
TTITLE19=Gene Autry/I'll Never Let You Go
TTITLE20=Merle Travis/Merle's Boogie Woogie
TTITLE21=Tennessee Ernie Ford/Blues Stay Away From Me
TTITLE22=Billy Hughes and The Pecos Pals/Take Your Hands Off Of It
TTITLE23=Red Foley/Tennessee Saturday Night
TTITLE24=Bill Monroe and His Blue Grass Boys/Rocky Road Blues
EXTD=
EXTT0=
EXTT1=
EXTT2=
EXTT3=
EXTT4=
EXTT5=
EXTT6=
EXTT7=
EXTT8=
EXTT9=
EXTT10=
EXTT11=
EXTT12=
EXTT13=
EXTT14=
EXTT15=
EXTT16=
EXTT17=
EXTT18=
EXTT19=
EXTT20=
EXTT21=
EXTT22=
EXTT23=
EXTT24=
PLAYORDER=
